<svg width="32" height="32" viewBox="0 0 32 32" fill="none" xmlns="http://www.w3.org/2000/svg">
<path fill-rule="evenodd" clip-rule="evenodd" d="M25.2843 20.7075C25.411 20.6347 25.5164 20.5298 25.5898 20.4035C25.6633 20.2771 25.7022 20.1336 25.7026 19.9875L25.7176 15.165C25.7181 15.0188 25.757 14.8753 25.8304 14.749C25.9038 14.6226 26.0092 14.5177 26.136 14.445L28.75 12.9433C28.8767 12.8705 29.0204 12.8324 29.1665 12.8326C29.3126 12.8328 29.4561 12.8715 29.5826 12.9447C29.709 13.0179 29.8139 13.123 29.8869 13.2496C29.9599 13.3762 29.9984 13.5197 29.9985 13.6658V22.4333C29.9984 22.5799 29.9597 22.7239 29.8862 22.8507C29.8128 22.9776 29.7071 23.0828 29.58 23.1558L20.5485 28.3441C20.4218 28.4169 20.2781 28.455 20.132 28.4548C19.9859 28.4546 19.8424 28.4159 19.7159 28.3427C19.5895 28.2695 19.4846 28.1644 19.4116 28.0378C19.3386 27.9112 19.3002 27.7677 19.3001 27.6216V24.6283C19.2998 24.4821 19.3387 24.3386 19.4121 24.2123C19.4855 24.0859 19.5908 23.981 19.7176 23.9083L25.2843 20.7075ZM25.8318 8.42244C25.8319 8.56982 25.8711 8.71452 25.9454 8.84181C26.0197 8.96909 26.1264 9.0744 26.2546 9.147C26.3829 9.21959 26.5281 9.25688 26.6754 9.25505C26.8228 9.25323 26.9671 9.21236 27.0935 9.13661L29.5935 7.63661C29.7169 7.56266 29.8189 7.45801 29.8899 7.33286C29.9609 7.20771 29.9984 7.06632 29.9985 6.92244V3.86578C29.9982 3.71848 29.9589 3.57388 29.8846 3.44671C29.8102 3.31954 29.7035 3.21435 29.5753 3.14185C29.4471 3.06935 29.3019 3.03214 29.1546 3.034C29.0073 3.03586 28.8631 3.07673 28.7367 3.15244L26.2367 4.65244C26.1133 4.7264 26.0112 4.83104 25.9402 4.95619C25.8693 5.08134 25.8319 5.22274 25.8318 5.36661V8.42244Z" fill="#007FFF"/>
<path fill-rule="evenodd" clip-rule="evenodd" d="M12.7572 7C9.88839 7 8.09588 8.42575 7.37837 11.2772C8.45422 9.85149 9.70923 9.31694 11.1434 9.67317C11.9617 9.87636 12.5468 10.4666 13.1939 11.12C14.2487 12.184 15.4695 13.4154 18.1355 13.4154C21.0039 13.4154 22.7968 11.9897 23.5139 9.13862C22.4385 10.5644 21.1835 11.0989 19.7493 10.7423C18.9306 10.5391 18.3455 9.94887 17.6984 9.29586C16.6436 8.23098 15.4232 7 12.7572 7ZM7.37837 13.4154C4.51002 13.4154 2.71709 14.8412 2 17.6927C3.07584 16.2669 4.33085 15.7324 5.76461 16.0886C6.58329 16.2918 7.16843 16.882 7.81554 17.5354C8.8703 18.5995 10.0907 19.8309 12.7572 19.8309C15.6255 19.8309 17.4185 18.4055 18.1355 15.554C17.0597 16.9798 15.8047 17.5143 14.3705 17.1581C13.5522 16.9545 12.9671 16.3643 12.32 15.7113C11.2652 14.6473 10.0444 13.4154 7.37837 13.4154Z" fill="#38BDF8"/>
</svg>
